<?xml version="1.0" encoding="UTF-8" standalone="no"?>
<!-- Created with Inkscape (http://www.inkscape.org/) -->

<svg
   xmlns:dc="http://purl.org/dc/elements/1.1/"
   xmlns:cc="http://creativecommons.org/ns#"
   xmlns:rdf="http://www.w3.org/1999/02/22-rdf-syntax-ns#"
   xmlns:svg="http://www.w3.org/2000/svg"
   xmlns="http://www.w3.org/2000/svg"
   xmlns:sodipodi="http://sodipodi.sourceforge.net/DTD/sodipodi-0.dtd"
   xmlns:inkscape="http://www.inkscape.org/namespaces/inkscape"
   width="350"
   height="30"
   id="svg2"
   version="1.1"
   inkscape:version="0.48.4 r9939"
   sodipodi:docname="logo_txt.svg">
  <defs
     id="defs4" />
  <sodipodi:namedview
     id="base"
     pagecolor="#ffffff"
     bordercolor="#666666"
     borderopacity="1.0"
     inkscape:pageopacity="0.0"
     inkscape:pageshadow="2"
     inkscape:zoom="2.8365083"
     inkscape:cx="196.4849"
     inkscape:cy="12.27193"
     inkscape:document-units="px"
     inkscape:current-layer="layer1"
     showgrid="false"
     units="px"
     borderlayer="true"
     inkscape:window-width="1920"
     inkscape:window-height="1004"
     inkscape:window-x="0"
     inkscape:window-y="24"
     inkscape:window-maximized="1" />
  <metadata
     id="metadata7">
    <rdf:RDF>
      <cc:Work
         rdf:about="">
        <dc:format>image/svg+xml</dc:format>
        <dc:type
           rdf:resource="http://purl.org/dc/dcmitype/StillImage" />
        <dc:title></dc:title>
      </cc:Work>
    </rdf:RDF>
  </metadata>
  <g
     inkscape:label="Layer 1"
     inkscape:groupmode="layer"
     id="layer1"
     transform="translate(0,-1022.3622)">
    <g
       style="font-size:144px;font-style:normal;font-variant:normal;font-weight:normal;font-stretch:normal;text-align:start;line-height:125%;letter-spacing:0px;word-spacing:0px;writing-mode:lr-tb;text-anchor:start;fill:#000000;fill-opacity:1;stroke:none;font-family:Rodchenko;-inkscape-font-specification:PT Sans Pro"
       id="text3148">
      <path
         d="m 125.19072,1037.9383 1.968,0.24 0,2.34 c -0.348,0.192 -0.804,0.3 -1.308,0.3 -1.644,0 -2.784,-1.092 -2.784,-3.456 0,-2.592 1.464,-3.456 2.796,-3.456 0.708,0 1.272,0.096 1.644,0.276 l 0.252,-0.876 c -0.432,-0.168 -1.032,-0.288 -1.98,-0.288 -1.8,0 -3.768,1.236 -3.768,4.344 0,2.988 1.548,4.344 3.684,4.344 0.84,0 1.8,-0.24 2.316,-0.636 l 0,-3.696 -2.82,0 0,0.564"
         style="font-size:12px;font-family:PT Sans Pro;-inkscape-font-specification:PT Sans Pro"
         id="path3233" />
      <path
         d="m 129.69466,1041.5623 4.632,0 0,-0.888 -3.636,0 0,-2.988 3.276,0 0,-0.888 -3.276,0 0,-2.748 3.576,0 0,-0.888 -4.572,0 0,8.4"
         style="font-size:12px;font-family:PT Sans Pro;-inkscape-font-specification:PT Sans Pro"
         id="path3235" />
      <path
         d="m 141.62453,1041.6943 0.528,0 0,-8.532 -0.936,0 0,5.472 0.132,1.152 -0.06,0 -0.624,-1.152 -4.02,-5.604 -0.528,0 0,8.532 0.936,0 0,-5.496 -0.12,-1.212 0.048,0 0.648,1.212 3.996,5.628"
         style="font-size:12px;font-family:PT Sans Pro;-inkscape-font-specification:PT Sans Pro"
         id="path3237" />
      <path
         d="m 144.20247,1041.5623 4.632,0 0,-0.888 -3.636,0 0,-2.988 3.276,0 0,-0.888 -3.276,0 0,-2.748 3.576,0 0,-0.888 -4.572,0 0,8.4"
         style="font-size:12px;font-family:PT Sans Pro;-inkscape-font-specification:PT Sans Pro"
         id="path3239" />
      <path
         d="m 150.62435,1041.5623 0.996,0 0,-3.804 1.176,0.18 2.316,3.624 1.164,0 -2.088,-3.324 -0.576,-0.444 c 1.104,-0.264 1.908,-1.104 1.908,-2.412 0,-1.704 -1.296,-2.316 -2.76,-2.316 -0.66,0 -1.524,0.06 -2.136,0.18 l 0,8.316 m 2.16,-7.632 c 1.044,0 1.68,0.636 1.68,1.488 0,1.152 -0.804,1.68 -1.908,1.68 l -0.936,0 0,-3.096 c 0.228,-0.06 0.756,-0.072 1.164,-0.072"
         style="font-size:12px;font-family:PT Sans Pro;-inkscape-font-specification:PT Sans Pro"
         id="path3241" />
      <path
         d="m 162.3281,1041.5623 1.044,0 -3.192,-8.532 -0.456,0 -3.18,8.532 0.984,0 0.84,-2.328 3.096,0 0.864,2.328 m -2.712,-5.724 0.3,-1.296 0.012,0 0.3,1.272 0.936,2.556 -2.472,0 0.924,-2.532"
         style="font-size:12px;font-family:PT Sans Pro;-inkscape-font-specification:PT Sans Pro"
         id="path3243" />
      <path
         d="m 169.12647,1033.1623 -6.228,0 0,0.888 2.616,0 0,7.512 0.996,0 0,-7.512 2.616,0 0,-0.888"
         style="font-size:12px;font-family:PT Sans Pro;-inkscape-font-specification:PT Sans Pro"
         id="path3245" />
      <path
         d="m 169.42478,1037.3623 c 0,2.616 1.08001,4.344 3.42,4.344 2.196,0 3.444,-1.56 3.444,-4.344 0,-2.616 -1.08,-4.344 -3.444,-4.344 -2.17199,0 -3.42,1.56 -3.42,4.344 m 1.056,0 c 0,-2.34 0.90001,-3.456 2.364,-3.456 1.668,0 2.388,1.62 2.388,3.456 0,2.352 -0.9,3.456 -2.388,3.456 -1.64399,0 -2.364,-1.608 -2.364,-3.456"
         style="font-size:12px;font-family:PT Sans Pro;-inkscape-font-specification:PT Sans Pro"
         id="path3247" />
      <path
         d="m 177.97591,1041.5623 0.996,0 0,-3.804 1.176,0.18 2.316,3.624 1.164,0 -2.088,-3.324 -0.576,-0.444 c 1.104,-0.264 1.908,-1.104 1.908,-2.412 0,-1.704 -1.296,-2.316 -2.76,-2.316 -0.66,0 -1.524,0.06 -2.136,0.18 l 0,8.316 m 2.16,-7.632 c 1.044,0 1.68,0.636 1.68,1.488 0,1.152 -0.804,1.68 -1.908,1.68 l -0.936,0 0,-3.096 c 0.228,-0.06 0.756,-0.072 1.164,-0.072"
         style="font-size:12px;font-family:PT Sans Pro;-inkscape-font-specification:PT Sans Pro"
         id="path3249" />
      <path
         d="m 188.33528,1041.5623 0.996,0 0,-3.804 1.176,0.18 2.316,3.624 1.164,0 -2.088,-3.324 -0.576,-0.444 c 1.104,-0.264 1.908,-1.104 1.908,-2.412 0,-1.704 -1.296,-2.316 -2.76,-2.316 -0.65999,0 -1.524,0.06 -2.136,0.18 l 0,8.316 m 2.16,-7.632 c 1.044,0 1.68,0.636 1.68,1.488 0,1.152 -0.804,1.68 -1.908,1.68 l -0.936,0 0,-3.096 c 0.228,-0.06 0.75601,-0.072 1.164,-0.072"
         style="font-size:12px;font-family:PT Sans Pro;-inkscape-font-specification:PT Sans Pro"
         id="path3251" />
      <path
         d="m 200.03903,1041.5623 1.044,0 -3.192,-8.532 -0.456,0 -3.18,8.532 0.984,0 0.84,-2.328 3.096,0 0.864,2.328 m -2.712,-5.724 0.3,-1.296 0.012,0 0.3,1.272 0.936,2.556 -2.472,0 0.924,-2.532"
         style="font-size:12px;font-family:PT Sans Pro;-inkscape-font-specification:PT Sans Pro"
         id="path3253" />
      <path
         d="m 206.00228,1039.4263 c 0,0.972 -0.84,1.392 -1.896,1.392 -0.88799,0 -1.668,-0.252 -2.028,-0.456 l -0.336,0.9 c 0.432,0.228 1.20001,0.444 2.4,0.444 1.788,0 2.856,-0.936 2.856,-2.364 0,-2.652 -4.056,-2.388 -4.056,-4.248 0,-0.636 0.52801,-1.188 1.584,-1.188 0.888,0 1.64401,0.192 2.016,0.372 l 0.3,-0.876 c -0.44399,-0.216 -1.296,-0.384 -2.268,-0.384 -1.66799,0 -2.628,0.828 -2.628,2.136 0,2.784 4.056,2.256 4.056,4.272"
         style="font-size:12px;font-family:PT Sans Pro;-inkscape-font-specification:PT Sans Pro"
         id="path3255" />
      <path
         d="m 214.00928,1033.1623 -6.228,0 0,0.888 2.616,0 0,7.512 0.996,0 0,-7.512 2.616,0 0,-0.888"
         style="font-size:12px;font-family:PT Sans Pro;-inkscape-font-specification:PT Sans Pro"
         id="path3257" />
      <path
         d="m 215.24153,1041.5623 0.996,0 0,-3.804 1.176,0.18 2.316,3.624 1.164,0 -2.088,-3.324 -0.576,-0.444 c 1.104,-0.264 1.908,-1.104 1.908,-2.412 0,-1.704 -1.296,-2.316 -2.76,-2.316 -0.65999,0 -1.524,0.06 -2.136,0.18 l 0,8.316 m 2.16,-7.632 c 1.044,0 1.68,0.636 1.68,1.488 0,1.152 -0.804,1.68 -1.908,1.68 l -0.936,0 0,-3.096 c 0.228,-0.06 0.75601,-0.072 1.164,-0.072"
         style="font-size:12px;font-family:PT Sans Pro;-inkscape-font-specification:PT Sans Pro"
         id="path3259" />
      <path
         d="m 226.94528,1041.5623 1.044,0 -3.192,-8.532 -0.456,0 -3.18,8.532 0.984,0 0.84,-2.328 3.096,0 0.864,2.328 m -2.712,-5.724 0.3,-1.296 0.012,0 0.3,1.272 0.936,2.556 -2.472,0 0.924,-2.532"
         style="font-size:12px;font-family:PT Sans Pro;-inkscape-font-specification:PT Sans Pro"
         id="path3261" />
    </g>
  </g>
</svg>
