<?xml version="1.0" encoding="UTF-8" standalone="no"?>
<!-- Created with Inkscape (http://www.inkscape.org/) -->

<svg
   xmlns:dc="http://purl.org/dc/elements/1.1/"
   xmlns:cc="http://creativecommons.org/ns#"
   xmlns:rdf="http://www.w3.org/1999/02/22-rdf-syntax-ns#"
   xmlns:svg="http://www.w3.org/2000/svg"
   xmlns="http://www.w3.org/2000/svg"
   xmlns:sodipodi="http://sodipodi.sourceforge.net/DTD/sodipodi-0.dtd"
   xmlns:inkscape="http://www.inkscape.org/namespaces/inkscape"
   width="350"
   height="30"
   id="svg2"
   version="1.1"
   inkscape:version="0.48.4 r9939"
   sodipodi:docname="logo.svg">
  <defs
     id="defs4" />
  <sodipodi:namedview
     id="base"
     pagecolor="#ffffff"
     bordercolor="#666666"
     borderopacity="1.0"
     inkscape:pageopacity="0.0"
     inkscape:pageshadow="2"
     inkscape:zoom="2.8365083"
     inkscape:cx="220.37556"
     inkscape:cy="6.9837379"
     inkscape:document-units="px"
     inkscape:current-layer="layer1"
     showgrid="false"
     units="px"
     borderlayer="true"
     inkscape:window-width="1920"
     inkscape:window-height="1004"
     inkscape:window-x="0"
     inkscape:window-y="24"
     inkscape:window-maximized="1" />
  <metadata
     id="metadata7">
    <rdf:RDF>
      <cc:Work
         rdf:about="">
        <dc:format>image/svg+xml</dc:format>
        <dc:type
           rdf:resource="http://purl.org/dc/dcmitype/StillImage" />
        <dc:title></dc:title>
      </cc:Work>
    </rdf:RDF>
  </metadata>
  <g
     inkscape:label="Layer 1"
     inkscape:groupmode="layer"
     id="layer1"
     transform="translate(0,-1022.3622)">
    <g
       style="font-size:144px;font-style:normal;font-variant:normal;font-weight:bold;font-stretch:normal;text-align:start;line-height:125%;letter-spacing:0px;word-spacing:0px;writing-mode:lr-tb;text-anchor:start;fill:#000000;fill-opacity:1;stroke:none;font-family:Rodchenko;-inkscape-font-specification:Rodchenko Bold"
       id="text3803">
      <path
         d="m 110.65014,1033.0782 c -0.774,-0.288 -2.016,-0.54 -3.546,-0.54 -2.916,0 -4.5,1.71 -4.5,4.896 0,3.0419 1.152,4.464 3.456,4.464 1.098,0 1.8,-0.2701 2.232,-0.846 l 0.072,0 0,0.576 c 0,1.2779 -0.468,2.016 -2.106,2.016 -1.062,0 -1.764,-0.27 -2.322,-0.486 l -0.486,1.854 c 0.504,0.27 1.458,0.558 3.168,0.558 2.538,0 4.032,-1.2061 4.032,-3.816 l 0,-8.676 m -3.96,6.948 c -1.08,0 -1.674,-0.9361 -1.674,-2.682 0,-1.962 0.72,-2.826 1.908,-2.826 0.576,0 1.044,0.09 1.386,0.234 l 0,4.05 c -0.252,0.8099 -0.72,1.224 -1.62,1.224"
         style="font-size:18px;font-family:PT Sans Pro;-inkscape-font-specification:PT Sans Pro Bold"
         id="path3812" />
      <path
         d="m 119.09495,1039.4502 c -0.396,0.306 -1.242,0.684 -2.214,0.684 -1.584,0 -2.232,-0.7741 -2.304,-2.286 l 5.4,0 c 0.126,-0.63 0.18,-1.2061 0.18,-1.71 0,-2.79 -1.782,-3.636 -3.6,-3.636 -2.718,0 -4.32,1.602 -4.32,4.752 0,2.9519 1.296,4.752 4.194,4.752 1.386,0 2.718,-0.4501 3.438,-1.026 l -0.774,-1.53 m -2.574,-5.076 c 0.972,0 1.476,0.63 1.476,1.728 0,0.09 -0.018,0.198 -0.018,0.288 l -3.348,0 c 0.108,-1.224 0.666,-2.016 1.89,-2.016"
         style="font-size:18px;font-family:PT Sans Pro;-inkscape-font-specification:PT Sans Pro Bold"
         id="path3814" />
      <path
         d="m 129.65758,1041.7542 0,-5.598 c 0,-2.808 -0.99,-3.654 -2.79,-3.654 -1.422,0 -2.322,0.666 -2.862,1.44 l -0.072,0 -0.27,-1.188 -1.854,0 0,9 2.34,0 0,-5.832 c 0.252,-0.774 0.9,-1.35 1.782,-1.35 0.99,0 1.386,0.612 1.386,2.07 l 0,5.112 2.34,0"
         style="font-size:18px;font-family:PT Sans Pro;-inkscape-font-specification:PT Sans Pro Bold"
         id="path3816" />
      <path
         d="m 138.04417,1039.4502 c -0.396,0.306 -1.242,0.684 -2.214,0.684 -1.584,0 -2.232,-0.7741 -2.304,-2.286 l 5.4,0 c 0.126,-0.63 0.18,-1.2061 0.18,-1.71 0,-2.79 -1.782,-3.636 -3.6,-3.636 -2.718,0 -4.32,1.602 -4.32,4.752 0,2.9519 1.296,4.752 4.194,4.752 1.386,0 2.718,-0.4501 3.438,-1.026 l -0.774,-1.53 m -2.574,-5.076 c 0.972,0 1.476,0.63 1.476,1.728 0,0.09 -0.018,0.198 -0.018,0.288 l -3.348,0 c 0.108,-1.224 0.666,-2.016 1.89,-2.016"
         style="font-size:18px;font-family:PT Sans Pro;-inkscape-font-specification:PT Sans Pro Bold"
         id="path3818" />
      <path
         d="m 146.0328,1032.7542 c -0.378,-0.126 -0.738,-0.198 -1.062,-0.198 -0.936,0 -1.638,0.504 -2.052,1.386 l -0.072,0 -0.27,-1.188 -1.818,0 0,9 2.34,0 0,-5.814 c 0.198,-0.702 0.774,-1.188 1.62,-1.188 0.306,0 0.648,0.072 1.008,0.198 l 0.306,-2.196"
         style="font-size:18px;font-family:PT Sans Pro;-inkscape-font-specification:PT Sans Pro Bold"
         id="path3820" />
      <path
         d="m 147.59092,1035.0222 c 0.666,-0.306 1.836,-0.522 2.772,-0.522 1.026,0 1.386,0.378 1.386,1.278 0,0.18 0,0.378 -0.036,0.612 -0.234,-0.018 -0.468,-0.018 -0.684,-0.018 -2.79,0 -4.554,0.864 -4.554,2.898 0,1.5659 1.098,2.628 2.754,2.628 1.332,0 2.16,-0.6301 2.646,-1.368 l 0.09,0 0.378,1.242 1.908,0 c -0.252,-0.756 -0.324,-1.5841 -0.324,-2.466 0,-1.152 0.126,-2.3761 0.126,-3.582 0,-1.908 -0.72,-3.15 -3.24,-3.15 -1.44,0 -2.826,0.27 -3.78,0.702 l 0.558,1.746 m 2.412,4.95 c -0.684,0 -1.116,-0.3961 -1.116,-1.062 0,-0.828 0.954,-1.134 2.16,-1.134 0.216,0 0.45,0.018 0.684,0.036 l 0,1.17 c -0.252,0.4859 -0.792,0.99 -1.728,0.99"
         style="font-size:18px;font-family:PT Sans Pro;-inkscape-font-specification:PT Sans Pro Bold"
         id="path3822" />
      <path
         d="m 155.08061,1034.7342 1.242,0 0,4.536 c 0,1.9259 0.774,2.736 2.412,2.736 0.882,0 1.8,-0.252 2.448,-0.558 l -0.414,-1.8 c -0.432,0.198 -0.738,0.288 -1.206,0.288 -0.702,0 -0.9,-0.5041 -0.9,-1.746 l 0,-3.456 2.196,0 0,-1.98 -2.196,0 0,-2.358 -2.34,0.666 0,1.692 -1.242,0 0,1.98"
         style="font-size:18px;font-family:PT Sans Pro;-inkscape-font-specification:PT Sans Pro Bold"
         id="path3824" />
      <path
         d="m 161.77211,1037.2542 c 0,2.8439 1.386,4.752 4.248,4.752 2.682,0 4.23,-1.7281 4.23,-4.752 0,-2.844 -1.368,-4.752 -4.23,-4.752 -2.682,0 -4.248,1.728 -4.248,4.752 m 2.412,0 c 0,-1.962 0.684,-2.772 1.836,-2.772 1.314,0 1.818,1.116 1.818,2.772 0,1.9079 -0.612,2.772 -1.818,2.772 -1.296,0 -1.836,-1.1881 -1.836,-2.772"
         style="font-size:18px;font-family:PT Sans Pro;-inkscape-font-specification:PT Sans Pro Bold"
         id="path3826" />
      <path
         d="m 177.14608,1032.7542 c -0.378,-0.126 -0.738,-0.198 -1.062,-0.198 -0.936,0 -1.638,0.504 -2.052,1.386 l -0.072,0 -0.27,-1.188 -1.818,0 0,9 2.34,0 0,-5.814 c 0.198,-0.702 0.774,-1.188 1.62,-1.188 0.306,0 0.648,0.072 1.008,0.198 l 0.306,-2.196"
         style="font-size:18px;font-family:PT Sans Pro;-inkscape-font-specification:PT Sans Pro Bold"
         id="path3828" />
      <path
         d="m 188.04451,1032.7542 c -0.378,-0.126 -0.738,-0.198 -1.062,-0.198 -0.93599,0 -1.638,0.504 -2.052,1.386 l -0.072,0 -0.27,-1.188 -1.818,0 0,9 2.34,0 0,-5.814 c 0.198,-0.702 0.77401,-1.188 1.62,-1.188 0.306,0 0.648,0.072 1.008,0.198 l 0.306,-2.196"
         style="font-size:18px;font-family:PT Sans Pro;-inkscape-font-specification:PT Sans Pro Bold"
         id="path3830" />
      <path
         d="m 189.60264,1035.0222 c 0.666,-0.306 1.836,-0.522 2.772,-0.522 1.026,0 1.386,0.378 1.386,1.278 0,0.18 0,0.378 -0.036,0.612 -0.234,-0.018 -0.468,-0.018 -0.684,-0.018 -2.79,0 -4.554,0.864 -4.554,2.898 0,1.5659 1.098,2.628 2.754,2.628 1.332,0 2.16,-0.6301 2.646,-1.368 l 0.09,0 0.378,1.242 1.908,0 c -0.252,-0.756 -0.324,-1.5841 -0.324,-2.466 0,-1.152 0.126,-2.3761 0.126,-3.582 0,-1.908 -0.72,-3.15 -3.24,-3.15 -1.44,0 -2.826,0.27 -3.78,0.702 l 0.558,1.746 m 2.412,4.95 c -0.684,0 -1.116,-0.3961 -1.116,-1.062 0,-0.828 0.954,-1.134 2.16,-1.134 0.216,0 0.45,0.018 0.684,0.036 l 0,1.17 c -0.252,0.4859 -0.792,0.99 -1.728,0.99"
         style="font-size:18px;font-family:PT Sans Pro;-inkscape-font-specification:PT Sans Pro Bold"
         id="path3832" />
      <path
         d="m 201.75433,1039.2702 c 0,0.6299 -0.45,0.864 -1.152,0.864 -0.954,0 -1.944,-0.378 -2.502,-0.684 l -0.648,1.746 c 0.684,0.4319 1.89,0.81 3.15,0.81 2.30399,0 3.492,-1.1161 3.492,-2.934 0,-3.15 -4.104,-2.5741 -4.104,-3.888 0,-0.558 0.342,-0.81 1.044,-0.81 0.864,0 1.764,0.306 2.322,0.522 l 0.522,-1.692 c -0.63,-0.36 -1.8,-0.702 -3.15,-0.702 -1.98,0 -3.078,0.972 -3.078,2.736 0,3.2399 4.104,2.592 4.104,4.032"
         style="font-size:18px;font-family:PT Sans Pro;-inkscape-font-specification:PT Sans Pro Bold"
         id="path3834" />
      <path
         d="m 204.68608,1034.7342 1.242,0 0,4.536 c 0,1.9259 0.774,2.736 2.412,2.736 0.882,0 1.8,-0.252 2.448,-0.558 l -0.414,-1.8 c -0.432,0.198 -0.738,0.288 -1.206,0.288 -0.702,0 -0.9,-0.5041 -0.9,-1.746 l 0,-3.456 2.196,0 0,-1.98 -2.196,0 0,-2.358 -2.34,0.666 0,1.692 -1.242,0 0,1.98"
         style="font-size:18px;font-family:PT Sans Pro;-inkscape-font-specification:PT Sans Pro Bold"
         id="path3836" />
      <path
         d="m 217.18905,1032.7542 c -0.378,-0.126 -0.738,-0.198 -1.062,-0.198 -0.936,0 -1.638,0.504 -2.052,1.386 l -0.072,0 -0.27,-1.188 -1.818,0 0,9 2.34,0 0,-5.814 c 0.198,-0.702 0.774,-1.188 1.62,-1.188 0.306,0 0.648,0.072 1.008,0.198 l 0.306,-2.196"
         style="font-size:18px;font-family:PT Sans Pro;-inkscape-font-specification:PT Sans Pro Bold"
         id="path3838" />
      <path
         d="m 218.74717,1035.0222 c 0.666,-0.306 1.836,-0.522 2.772,-0.522 1.026,0 1.386,0.378 1.386,1.278 0,0.18 0,0.378 -0.036,0.612 -0.234,-0.018 -0.468,-0.018 -0.684,-0.018 -2.79,0 -4.554,0.864 -4.554,2.898 0,1.5659 1.098,2.628 2.754,2.628 1.332,0 2.16,-0.6301 2.646,-1.368 l 0.09,0 0.378,1.242 1.908,0 c -0.252,-0.756 -0.324,-1.5841 -0.324,-2.466 0,-1.152 0.126,-2.3761 0.126,-3.582 0,-1.908 -0.72,-3.15 -3.24,-3.15 -1.44,0 -2.826,0.27 -3.78,0.702 l 0.558,1.746 m 2.412,4.95 c -0.684,0 -1.116,-0.3961 -1.116,-1.062 0,-0.828 0.954,-1.134 2.16,-1.134 0.216,0 0.45,0.018 0.684,0.036 l 0,1.17 c -0.252,0.4859 -0.792,0.99 -1.728,0.99"
         style="font-size:18px;font-family:PT Sans Pro;-inkscape-font-specification:PT Sans Pro Bold"
         id="path3840" />
      <path
         d="m 237.57517,1039.4142 c -0.432,0.288 -0.954,0.522 -1.746,0.522 -1.458,0 -2.106,-1.1701 -2.106,-2.682 0,-1.872 0.702,-2.682 1.98,-2.682 0.684,0 1.188,0.144 1.746,0.414 l 0.558,-1.908 c -0.648,-0.342 -1.368,-0.576 -2.682,-0.576 -2.592,0 -4.014,1.728 -4.014,4.752 0,2.8439 1.044,4.752 3.924,4.752 1.08,0 2.16,-0.2881 2.88,-0.81 l -0.54,-1.782"
         style="font-size:18px;font-family:PT Sans Pro;-inkscape-font-specification:PT Sans Pro Bold"
         id="path3842" />
      <path
         d="m 244.71386,1041.7542 2.682,0 -2.43,-4.194 -0.99,-0.702 0.918,-0.684 2.16,-3.42 -2.574,0 -2.052,3.582 -0.54,0.252 0,-7.434 -2.34,0 0,12.6 2.34,0 0,-3.726 0.63,0 2.196,3.726"
         style="font-size:18px;font-family:PT Sans Pro;-inkscape-font-specification:PT Sans Pro Bold"
         id="path3844" />
    </g>
    <rect
       style="fill:#000000;fill-opacity:1;stroke:none"
       id="rect3807"
       width="97.655281"
       height="9.8712912"
       x="0.70509225"
       y="1032.4265" />
    <rect
       y="1032.4265"
       x="252.77556"
       height="9.8712912"
       width="97.655281"
       id="rect3809"
       style="fill:#000000;fill-opacity:1;stroke:none" />
  </g>
</svg>
